<?xml version="1.0" encoding="utf-8"?>
<!-- Generator: Adobe Illustrator 16.0.0, SVG Export Plug-In . SVG Version: 6.00 Build 0)  -->
<!DOCTYPE svg PUBLIC "-//W3C//DTD SVG 1.1//EN" "http://www.w3.org/Graphics/SVG/1.1/DTD/svg11.dtd">
<svg version="1.1" id="Calque_1" xmlns="http://www.w3.org/2000/svg" xmlns:xlink="http://www.w3.org/1999/xlink" x="0px" y="0px"
	 width="194.173px" height="70.866px" viewBox="0 0 194.173 70.866" enable-background="new 0 0 194.173 70.866"
	 xml:space="preserve">
<polygon fill="#E7344C" points="35.377,0 32.74,1.911 29.834,0.44 27.527,2.739 24.427,1.742 22.512,4.376 19.293,3.881 
	17.814,6.782 14.559,6.797 13.553,9.894 10.338,10.417 9.826,13.632 6.732,14.648 6.727,17.906 3.83,19.392 4.334,22.61 
	1.708,24.534 2.713,27.631 0.422,29.945 1.902,32.845 0,35.489 1.911,38.126 0.439,41.031 2.738,43.338 1.742,46.438 4.376,48.354 
	3.881,51.572 6.782,53.05 6.798,56.308 9.894,57.313 10.416,60.527 13.633,61.04 14.649,64.134 17.905,64.14 19.392,67.036 
	22.61,66.53 24.534,69.158 27.631,68.153 29.945,70.444 32.845,68.963 35.488,70.866 38.126,68.956 41.031,70.426 43.338,68.126 
	46.437,69.124 48.354,66.49 51.573,66.985 53.049,64.083 56.306,64.068 57.313,60.972 60.527,60.449 61.039,57.234 64.132,56.217 
	64.137,52.96 67.035,51.475 66.531,48.257 69.158,46.333 68.151,43.235 70.443,40.922 68.962,38.021 70.866,35.377 68.954,32.741 
	70.426,29.835 68.127,27.528 69.122,24.428 66.489,22.512 66.985,19.294 64.083,17.815 64.068,14.56 60.97,13.552 60.447,10.339 
	57.232,9.826 56.217,6.732 52.959,6.727 51.473,3.83 48.255,4.335 46.332,1.708 43.234,2.714 40.921,0.423 38.019,1.902 "/>
<g>
	<defs>
		<rect id="SVGID_1_" width="194.173" height="70.866"/>
	</defs>
	<clipPath id="SVGID_2_">
		<use xlink:href="#SVGID_1_"  overflow="visible"/>
	</clipPath>
	<path clip-path="url(#SVGID_2_)" fill="#FFFFFF" d="M52.001,45.277l-8.818-23.41c-0.348-0.921-1.231-1.53-2.214-1.53
		c-0.985,0-1.867,0.609-2.215,1.53l-3.43,9.073l-2.529,6.695l-0.182,0.477v0.002c0,0-1.203,3.187-1.215,3.225
		c-1.105,3.41-3.595,4.323-5.443,3.726c-0.692-0.223-1.782-0.806-1.361-2.207L29.681,29.4l2.423,6.407l2.553-6.634l-2.76-7.306
		c-0.35-0.921-1.231-1.53-2.216-1.53c-0.984,0-1.866,0.609-2.214,1.53l-7.325,19.382c-0.015,0.038-0.028,0.075-0.04,0.113
		c-1.145,3.565,0.706,7.018,4.4,8.208c3.693,1.189,8.491-0.318,10.811-5.271L40.969,29.4l6.603,17.55
		c0.358,0.949,1.258,1.532,2.215,1.532c0.278,0,0.56-0.05,0.836-0.153C51.847,47.867,52.463,46.5,52.001,45.277"/>
	<path clip-path="url(#SVGID_2_)" fill="#FFFFFF" d="M28.44,16.277l1.007,2.942c0.043-0.003,0.084-0.004,0.127-0.005L28.44,16.277z"
		/>
	<path clip-path="url(#SVGID_2_)" fill="none" stroke="#FFFFFF" stroke-width="0.085" stroke-miterlimit="10" d="M28.44,16.277
		l1.007,2.942c0.043-0.003,0.084-0.004,0.127-0.005L28.44,16.277z"/>
	<polygon clip-path="url(#SVGID_2_)" fill="#FFFFFF" points="35.549,27.156 35.433,15.047 35.114,27.193 35.324,27.75 	"/>
	<polygon clip-path="url(#SVGID_2_)" fill="none" stroke="#FFFFFF" stroke-width="0.085" stroke-miterlimit="10" points="
		35.549,27.156 35.433,15.047 35.114,27.193 35.324,27.75 	"/>
	<polygon clip-path="url(#SVGID_2_)" fill="#FFFFFF" points="51.084,22.343 46.085,26.376 46.182,26.63 	"/>
	<polygon clip-path="url(#SVGID_2_)" fill="none" stroke="#FFFFFF" stroke-width="0.085" stroke-miterlimit="10" points="
		51.084,22.343 46.085,26.376 46.182,26.63 	"/>
	<polygon clip-path="url(#SVGID_2_)" fill="#FFFFFF" points="54.638,42.472 51.725,41.348 51.781,41.494 	"/>
	<polygon clip-path="url(#SVGID_2_)" fill="none" stroke="#FFFFFF" stroke-width="0.085" stroke-miterlimit="10" points="
		54.638,42.472 51.725,41.348 51.781,41.494 	"/>
	<polygon clip-path="url(#SVGID_2_)" fill="#FFFFFF" points="14.998,35.482 21.069,35.605 21.163,35.357 	"/>
	<polygon clip-path="url(#SVGID_2_)" fill="none" stroke="#FFFFFF" stroke-width="0.085" stroke-miterlimit="10" points="
		14.998,35.482 21.069,35.605 21.163,35.357 	"/>
	<polygon clip-path="url(#SVGID_2_)" fill="#FFFFFF" points="15.305,31.944 21.962,33.243 22.057,32.991 	"/>
	<polygon clip-path="url(#SVGID_2_)" fill="none" stroke="#FFFFFF" stroke-width="0.085" stroke-miterlimit="10" points="
		15.305,31.944 21.962,33.243 22.057,32.991 	"/>
	<polygon clip-path="url(#SVGID_2_)" fill="#FFFFFF" points="15.305,39.02 20.057,38.282 20.136,38.076 	"/>
	<polygon clip-path="url(#SVGID_2_)" fill="none" stroke="#FFFFFF" stroke-width="0.085" stroke-miterlimit="10" points="
		15.305,39.02 20.057,38.282 20.136,38.076 	"/>
	<path clip-path="url(#SVGID_2_)" fill="#FFFFFF" d="M16.228,42.472l2.647-0.906c0.011-0.042,0.02-0.084,0.032-0.127L16.228,42.472z
		"/>
	<path clip-path="url(#SVGID_2_)" fill="none" stroke="#FFFFFF" stroke-width="0.085" stroke-miterlimit="10" d="M16.228,42.472
		l2.647-0.906c0.011-0.042,0.02-0.084,0.032-0.127L16.228,42.472z"/>
	<polygon clip-path="url(#SVGID_2_)" fill="#FFFFFF" points="54.638,28.49 47.768,30.844 47.867,31.103 	"/>
	<polygon clip-path="url(#SVGID_2_)" fill="none" stroke="#FFFFFF" stroke-width="0.085" stroke-miterlimit="10" points="
		54.638,28.49 47.768,30.844 47.867,31.103 	"/>
	<path clip-path="url(#SVGID_2_)" fill="#FFFFFF" d="M42.423,16.276l-1.138,2.949c0.041,0.004,0.082,0.009,0.123,0.014
		L42.423,16.276z"/>
	<path clip-path="url(#SVGID_2_)" fill="none" stroke="#FFFFFF" stroke-width="0.085" stroke-miterlimit="10" d="M42.423,16.276
		l-1.138,2.949c0.041,0.004,0.082,0.009,0.123,0.014L42.423,16.276z"/>
	<polygon clip-path="url(#SVGID_2_)" fill="#FFFFFF" points="16.228,28.491 22.799,31.027 22.896,30.773 	"/>
	<polygon clip-path="url(#SVGID_2_)" fill="none" stroke="#FFFFFF" stroke-width="0.085" stroke-miterlimit="10" points="
		16.228,28.491 22.799,31.027 22.896,30.773 	"/>
	<path clip-path="url(#SVGID_2_)" fill="#FFFFFF" d="M45.657,17.786l-1.793,2.965c0.029,0.042,0.056,0.087,0.082,0.13L45.657,17.786
		z"/>
	<path clip-path="url(#SVGID_2_)" fill="none" stroke="#FFFFFF" stroke-width="0.085" stroke-miterlimit="10" d="M45.657,17.786
		l-1.793,2.965c0.029,0.042,0.056,0.087,0.082,0.13L45.657,17.786z"/>
	<polygon clip-path="url(#SVGID_2_)" fill="#FFFFFF" points="48.573,19.831 45.112,23.789 45.197,24.015 	"/>
	<polygon clip-path="url(#SVGID_2_)" fill="none" stroke="#FFFFFF" stroke-width="0.085" stroke-miterlimit="10" points="
		48.573,19.831 45.112,23.789 45.197,24.015 	"/>
	<polygon clip-path="url(#SVGID_2_)" fill="#FFFFFF" points="55.561,31.941 48.59,33.023 48.688,33.285 	"/>
	<polygon clip-path="url(#SVGID_2_)" fill="none" stroke="#FFFFFF" stroke-width="0.085" stroke-miterlimit="10" points="
		55.561,31.941 48.59,33.023 48.688,33.285 	"/>
	<polygon clip-path="url(#SVGID_2_)" fill="#FFFFFF" points="55.561,39.02 50.476,38.026 50.557,38.243 	"/>
	<polygon clip-path="url(#SVGID_2_)" fill="none" stroke="#FFFFFF" stroke-width="0.085" stroke-miterlimit="10" points="
		55.561,39.02 50.476,38.026 50.557,38.243 	"/>
	<polygon clip-path="url(#SVGID_2_)" fill="#FFFFFF" points="55.868,35.482 49.469,35.353 49.563,35.607 	"/>
	<polygon clip-path="url(#SVGID_2_)" fill="none" stroke="#FFFFFF" stroke-width="0.085" stroke-miterlimit="10" points="
		55.868,35.482 49.469,35.353 49.563,35.607 	"/>
	<polygon clip-path="url(#SVGID_2_)" fill="#FFFFFF" points="53.127,25.257 46.95,28.672 47.049,28.934 	"/>
	<polygon clip-path="url(#SVGID_2_)" fill="none" stroke="#FFFFFF" stroke-width="0.085" stroke-miterlimit="10" points="
		53.127,25.257 46.95,28.672 47.049,28.934 	"/>
	<polygon clip-path="url(#SVGID_2_)" fill="#FFFFFF" points="19.78,22.344 24.516,26.484 24.609,26.239 	"/>
	<polygon clip-path="url(#SVGID_2_)" fill="none" stroke="#FFFFFF" stroke-width="0.085" stroke-miterlimit="10" points="
		19.78,22.344 24.516,26.484 24.609,26.239 	"/>
	<path clip-path="url(#SVGID_2_)" fill="#FFFFFF" d="M25.21,17.785l1.611,2.916c0.027-0.039,0.055-0.077,0.083-0.114L25.21,17.785z"
		/>
	<path clip-path="url(#SVGID_2_)" fill="none" stroke="#FFFFFF" stroke-width="0.085" stroke-miterlimit="10" d="M25.21,17.785
		l1.611,2.916c0.027-0.039,0.055-0.077,0.083-0.114L25.21,17.785z"/>
	<polygon clip-path="url(#SVGID_2_)" fill="#FFFFFF" points="22.292,19.832 25.52,23.831 25.602,23.615 	"/>
	<polygon clip-path="url(#SVGID_2_)" fill="none" stroke="#FFFFFF" stroke-width="0.085" stroke-miterlimit="10" points="
		22.292,19.832 25.52,23.831 25.602,23.615 	"/>
	<path clip-path="url(#SVGID_2_)" fill="#FFFFFF" d="M33.234,22.218l-1.339-6.865l0.893,5.756c0.06,0.116,0.116,0.234,0.163,0.359
		L33.234,22.218z"/>
	<path clip-path="url(#SVGID_2_)" fill="none" stroke="#FFFFFF" stroke-width="0.085" stroke-miterlimit="10" d="M33.234,22.218
		l-1.339-6.865l0.893,5.756c0.06,0.116,0.116,0.234,0.163,0.359L33.234,22.218z"/>
	<polygon clip-path="url(#SVGID_2_)" fill="#FFFFFF" points="17.737,25.257 23.633,28.821 23.729,28.569 	"/>
	<polygon clip-path="url(#SVGID_2_)" fill="none" stroke="#FFFFFF" stroke-width="0.085" stroke-miterlimit="10" points="
		17.737,25.257 23.633,28.821 23.729,28.569 	"/>
	<path clip-path="url(#SVGID_2_)" fill="#FFFFFF" d="M37.63,22.218l1.339-6.865l-0.892,5.756c-0.06,0.116-0.116,0.234-0.163,0.359
		L37.63,22.218z"/>
	<path clip-path="url(#SVGID_2_)" fill="none" stroke="#FFFFFF" stroke-width="0.085" stroke-miterlimit="10" d="M37.63,22.218
		l1.339-6.865l-0.892,5.756c-0.06,0.116-0.116,0.234-0.163,0.359L37.63,22.218z"/>
	<path clip-path="url(#SVGID_2_)" fill="#FFFFFF" d="M35.433,66.446c-17.1,0-31.012-13.913-31.012-31.013
		C4.42,18.333,18.333,4.42,35.433,4.42c17.101,0,31.013,13.912,31.013,31.013C66.446,52.533,52.534,66.446,35.433,66.446
		 M35.433,4.646c-16.976,0-30.787,13.811-30.787,30.787c0,16.976,13.811,30.787,30.787,30.787s30.788-13.812,30.788-30.787
		C66.221,18.458,52.409,4.646,35.433,4.646"/>
	<path clip-path="url(#SVGID_2_)" fill="none" stroke="#FFFFFF" stroke-width="0.085" stroke-miterlimit="10" d="M35.433,66.446
		c-17.1,0-31.012-13.913-31.012-31.013C4.42,18.333,18.333,4.42,35.433,4.42c17.101,0,31.013,13.912,31.013,31.013
		C66.446,52.533,52.534,66.446,35.433,66.446z M35.433,4.646c-16.976,0-30.787,13.811-30.787,30.787
		c0,16.976,13.811,30.787,30.787,30.787s30.788-13.812,30.788-30.787C66.221,18.458,52.409,4.646,35.433,4.646z"/>
	<path clip-path="url(#SVGID_2_)" fill="#FFFFFF" d="M35.433,57.062c-11.926,0-21.629-9.703-21.629-21.629
		c0-11.926,9.703-21.63,21.629-21.63c11.927,0,21.63,9.704,21.63,21.63C57.062,47.359,47.359,57.062,35.433,57.062 M35.433,14.029
		c-11.801,0-21.403,9.602-21.403,21.404c0,11.802,9.602,21.404,21.403,21.404c11.802,0,21.404-9.602,21.404-21.404
		C56.836,23.631,47.234,14.029,35.433,14.029"/>
	<path clip-path="url(#SVGID_2_)" fill="none" stroke="#FFFFFF" stroke-width="0.085" stroke-miterlimit="10" d="M35.433,57.062
		c-11.926,0-21.629-9.703-21.629-21.629c0-11.926,9.703-21.63,21.629-21.63c11.927,0,21.63,9.704,21.63,21.63
		C57.062,47.359,47.359,57.062,35.433,57.062z M35.433,14.029c-11.801,0-21.403,9.602-21.403,21.404
		c0,11.802,9.602,21.404,21.403,21.404c11.802,0,21.404-9.602,21.404-21.404C56.836,23.631,47.234,14.029,35.433,14.029z"/>
	<path clip-path="url(#SVGID_2_)" fill="#FFFFFF" d="M11.489,29.65c0.415,0.099,0.704-0.005,0.794-0.38
		c0.089-0.369-0.121-0.593-0.536-0.693l-3.52-0.846l0.116-0.48l3.493,0.839c0.698,0.168,1.087,0.603,0.917,1.314
		c-0.17,0.704-0.714,0.914-1.412,0.746l-3.494-0.84l0.122-0.507L11.489,29.65z"/>
	<path clip-path="url(#SVGID_2_)" fill="none" stroke="#FFFFFF" stroke-width="0.085" stroke-miterlimit="10" d="M11.489,29.65
		c0.415,0.099,0.704-0.005,0.794-0.38c0.089-0.369-0.121-0.593-0.536-0.693l-3.52-0.846l0.116-0.48l3.493,0.839
		c0.698,0.168,1.087,0.603,0.917,1.314c-0.17,0.704-0.714,0.914-1.412,0.746l-3.494-0.84l0.122-0.507L11.489,29.65z"/>
	<polygon clip-path="url(#SVGID_2_)" fill="#FFFFFF" points="15.125,23.266 14.877,23.67 10.835,21.203 11.186,20.632 
		14.678,21.479 11.755,19.696 11.999,19.298 16.042,21.765 15.755,22.233 11.855,21.271 	"/>
	<polygon clip-path="url(#SVGID_2_)" fill="none" stroke="#FFFFFF" stroke-width="0.085" stroke-miterlimit="10" points="
		15.125,23.266 14.877,23.67 10.835,21.203 11.186,20.632 14.678,21.479 11.755,19.696 11.999,19.298 16.042,21.765 15.755,22.233 
		11.855,21.271 	"/>
	
		<rect x="15.611" y="15.683" transform="matrix(-0.678 -0.735 0.735 -0.678 18.4468 39.974)" clip-path="url(#SVGID_2_)" fill="#FFFFFF" width="4.736" height="0.527"/>
	
		<rect x="15.611" y="15.683" transform="matrix(-0.678 -0.735 0.735 -0.678 18.4468 39.974)" clip-path="url(#SVGID_2_)" fill="none" stroke="#FFFFFF" stroke-width="0.085" stroke-miterlimit="10" width="4.736" height="0.527"/>
	<polygon clip-path="url(#SVGID_2_)" fill="#FFFFFF" points="22.155,10.075 24.695,13.411 23.527,9.385 23.963,9.166 25.298,13.797 
		24.603,14.146 21.677,10.315 	"/>
	<polygon clip-path="url(#SVGID_2_)" fill="none" stroke="#FFFFFF" stroke-width="0.085" stroke-miterlimit="10" points="
		22.155,10.075 24.695,13.411 23.527,9.385 23.963,9.166 25.298,13.797 24.603,14.146 21.677,10.315 	"/>
	<polygon clip-path="url(#SVGID_2_)" fill="#FFFFFF" points="32.085,9.06 32.159,9.528 31.017,9.708 31.278,11.372 32.683,11.15 
		32.757,11.625 30.833,11.929 30.095,7.25 32.021,6.947 32.094,7.42 30.691,7.643 30.942,9.24 	"/>
	<polygon clip-path="url(#SVGID_2_)" fill="none" stroke="#FFFFFF" stroke-width="0.085" stroke-miterlimit="10" points="
		32.085,9.06 32.159,9.528 31.017,9.708 31.278,11.372 32.683,11.15 32.757,11.625 30.833,11.929 30.095,7.25 32.021,6.947 
		32.094,7.42 30.691,7.643 30.942,9.24 	"/>
	<path clip-path="url(#SVGID_2_)" fill="#FFFFFF" d="M39.548,7.06c0.736,0.108,0.989,0.528,0.886,1.225l-0.055,0.381
		c-0.077,0.515-0.305,0.81-0.725,0.878c0.41,0.19,0.52,0.562,0.445,1.064l-0.107,0.73c-0.031,0.207-0.051,0.402,0.011,0.576
		l-0.529-0.079c-0.04-0.142-0.05-0.267-0.002-0.581l0.107-0.736c0.077-0.529-0.145-0.732-0.58-0.796L38.63,9.667l-0.293,2.002
		l-0.522-0.078l0.689-4.685L39.548,7.06z M39.089,9.249c0.415,0.061,0.682-0.037,0.757-0.545l0.067-0.449
		c0.061-0.421-0.06-0.665-0.449-0.722l-0.508-0.075l-0.255,1.734L39.089,9.249z"/>
	<path clip-path="url(#SVGID_2_)" fill="none" stroke="#FFFFFF" stroke-width="0.085" stroke-miterlimit="10" d="M39.548,7.06
		c0.736,0.108,0.989,0.528,0.886,1.225l-0.055,0.381c-0.077,0.515-0.305,0.81-0.725,0.878c0.41,0.19,0.52,0.562,0.445,1.064
		l-0.107,0.73c-0.031,0.207-0.051,0.402,0.011,0.576l-0.529-0.079c-0.04-0.142-0.05-0.267-0.002-0.581l0.107-0.736
		c0.077-0.529-0.145-0.732-0.58-0.796L38.63,9.667l-0.293,2.002l-0.522-0.078l0.689-4.685L39.548,7.06z M39.089,9.249
		c0.415,0.061,0.682-0.037,0.757-0.545l0.067-0.449c0.061-0.421-0.06-0.665-0.449-0.722l-0.508-0.075l-0.255,1.734L39.089,9.249z"/>
	<path clip-path="url(#SVGID_2_)" fill="#FFFFFF" d="M48.205,11.082l-0.057,0.115l-0.449-0.219l0.068-0.14
		c0.187-0.383,0.15-0.68-0.19-0.846c-0.34-0.165-0.596-0.012-0.779,0.365c-0.466,0.955,0.918,1.743,0.333,2.941
		c-0.314,0.644-0.828,0.913-1.479,0.596c-0.652-0.318-0.75-0.886-0.436-1.53l0.118-0.244l0.444,0.217l-0.131,0.268
		c-0.186,0.382-0.137,0.685,0.204,0.851c0.339,0.167,0.607,0.018,0.793-0.365c0.464-0.948-0.915-1.734-0.33-2.932
		c0.321-0.657,0.823-0.916,1.461-0.604C48.421,9.869,48.519,10.437,48.205,11.082"/>
	<path clip-path="url(#SVGID_2_)" fill="none" stroke="#FFFFFF" stroke-width="0.085" stroke-miterlimit="10" d="M48.205,11.082
		l-0.057,0.115l-0.449-0.219l0.068-0.14c0.187-0.383,0.15-0.68-0.19-0.846c-0.34-0.165-0.596-0.012-0.779,0.365
		c-0.466,0.955,0.918,1.743,0.333,2.941c-0.314,0.644-0.828,0.913-1.479,0.596c-0.652-0.318-0.75-0.886-0.436-1.53l0.118-0.244
		l0.444,0.217l-0.131,0.268c-0.186,0.382-0.137,0.685,0.204,0.851c0.339,0.167,0.607,0.018,0.793-0.365
		c0.464-0.948-0.915-1.734-0.33-2.932c0.321-0.657,0.823-0.916,1.461-0.604C48.421,9.869,48.519,10.437,48.205,11.082z"/>
	
		<rect x="50.176" y="15.373" transform="matrix(0.6648 -0.747 0.747 0.6648 5.9313 44.4911)" clip-path="url(#SVGID_2_)" fill="#FFFFFF" width="4.736" height="0.526"/>
	
		<rect x="50.176" y="15.373" transform="matrix(0.6648 -0.747 0.747 0.6648 5.9313 44.4911)" clip-path="url(#SVGID_2_)" fill="none" stroke="#FFFFFF" stroke-width="0.085" stroke-miterlimit="10" width="4.736" height="0.526"/>
	<polygon clip-path="url(#SVGID_2_)" fill="#FFFFFF" points="54.954,22.001 58.531,19.696 58.058,18.961 58.463,18.703 
		59.694,20.613 59.29,20.875 58.818,20.14 55.239,22.444 	"/>
	<polygon clip-path="url(#SVGID_2_)" fill="none" stroke="#FFFFFF" stroke-width="0.085" stroke-miterlimit="10" points="
		54.954,22.001 58.531,19.696 58.058,18.961 58.463,18.703 59.694,20.613 59.29,20.875 58.818,20.14 55.239,22.444 	"/>
	<path clip-path="url(#SVGID_2_)" fill="#FFFFFF" d="M60.701,28.609l-0.457,0.127l-0.308-1.115l-1.623,0.451l0.379,1.368
		l-0.463,0.129l-0.52-1.877l4.562-1.267l0.522,1.877l-0.464,0.129l-0.379-1.369l-1.558,0.433L60.701,28.609z M63.637,27.752
		l-0.84-0.42L62.7,26.98l0.796,0.27L63.637,27.752z"/>
	<path clip-path="url(#SVGID_2_)" fill="none" stroke="#FFFFFF" stroke-width="0.085" stroke-miterlimit="10" d="M60.701,28.609
		l-0.457,0.127l-0.308-1.115l-1.623,0.451l0.379,1.368l-0.463,0.129l-0.52-1.877l4.562-1.267l0.522,1.877l-0.464,0.129l-0.379-1.369
		l-1.558,0.433L60.701,28.609z M63.637,27.752l-0.84-0.42L62.7,26.98l0.796,0.27L63.637,27.752z"/>
	<path clip-path="url(#SVGID_2_)" fill="#FFFFFF" d="M58.143,41.342c0.174-0.723,0.616-0.937,1.301-0.771l0.374,0.091
		c0.506,0.123,0.778,0.377,0.809,0.802c0.225-0.391,0.607-0.466,1.099-0.348l0.718,0.174c0.203,0.049,0.396,0.09,0.574,0.042
		l-0.125,0.52c-0.146,0.027-0.271,0.024-0.58-0.05l-0.723-0.175c-0.52-0.126-0.743,0.078-0.848,0.505l-0.086,0.361l1.966,0.476
		l-0.124,0.514l-4.604-1.112L58.143,41.342z M60.281,41.999c0.099-0.408,0.026-0.684-0.475-0.804l-0.439-0.106
		c-0.415-0.101-0.668-0.002-0.761,0.38l-0.121,0.499l1.704,0.412L60.281,41.999z"/>
	<path clip-path="url(#SVGID_2_)" fill="none" stroke="#FFFFFF" stroke-width="0.085" stroke-miterlimit="10" d="M58.143,41.342
		c0.174-0.723,0.616-0.937,1.301-0.771l0.374,0.091c0.506,0.123,0.778,0.377,0.809,0.802c0.225-0.391,0.607-0.466,1.099-0.348
		l0.718,0.174c0.203,0.049,0.396,0.09,0.574,0.042l-0.125,0.52c-0.146,0.027-0.271,0.024-0.58-0.05l-0.723-0.175
		c-0.52-0.126-0.743,0.078-0.848,0.505l-0.086,0.361l1.966,0.476l-0.124,0.514l-4.604-1.112L58.143,41.342z M60.281,41.999
		c0.099-0.408,0.026-0.684-0.475-0.804l-0.439-0.106c-0.415-0.101-0.668-0.002-0.761,0.38l-0.121,0.499l1.704,0.412L60.281,41.999z"
		/>
	<polygon clip-path="url(#SVGID_2_)" fill="#FFFFFF" points="58.061,47.534 58.476,47.764 57.914,48.776 59.387,49.595 
		60.077,48.353 60.497,48.585 59.551,50.289 55.41,47.988 56.356,46.285 56.776,46.518 56.086,47.761 57.499,48.546 	"/>
	<polygon clip-path="url(#SVGID_2_)" fill="none" stroke="#FFFFFF" stroke-width="0.085" stroke-miterlimit="10" points="
		58.061,47.534 58.476,47.764 57.914,48.776 59.387,49.595 60.077,48.353 60.497,48.585 59.551,50.289 55.41,47.988 56.356,46.285 
		56.776,46.518 56.086,47.761 57.499,48.546 	"/>
	
		<rect x="52.033" y="52.955" transform="matrix(-0.7371 -0.6758 0.6758 -0.7371 58.5309 129.2098)" clip-path="url(#SVGID_2_)" fill="#FFFFFF" width="4.737" height="0.528"/>
	
		<rect x="52.033" y="52.955" transform="matrix(-0.7371 -0.6758 0.6758 -0.7371 58.5309 129.2098)" clip-path="url(#SVGID_2_)" fill="none" stroke="#FFFFFF" stroke-width="0.085" stroke-miterlimit="10" width="4.737" height="0.528"/>
	<polygon clip-path="url(#SVGID_2_)" fill="#FFFFFF" points="50.498,59.57 47.833,55.653 48.271,55.356 50.665,58.877 
		51.785,58.115 52.054,58.513 	"/>
	<polygon clip-path="url(#SVGID_2_)" fill="none" stroke="#FFFFFF" stroke-width="0.085" stroke-miterlimit="10" points="
		50.498,59.57 47.833,55.653 48.271,55.356 50.665,58.877 51.785,58.115 52.054,58.513 	"/>
	<polygon clip-path="url(#SVGID_2_)" fill="#FFFFFF" points="43.96,62.626 42.385,58.16 42.883,57.984 44.298,61.998 45.575,61.548 
		45.735,62.001 	"/>
	<polygon clip-path="url(#SVGID_2_)" fill="none" stroke="#FFFFFF" stroke-width="0.085" stroke-miterlimit="10" points="
		43.96,62.626 42.385,58.16 42.883,57.984 44.298,61.998 45.575,61.548 45.735,62.001 	"/>
	<polygon clip-path="url(#SVGID_2_)" fill="#FFFFFF" points="38.166,61.158 38.202,61.631 37.049,61.721 37.178,63.399 
		38.596,63.289 38.633,63.769 36.69,63.919 36.324,59.197 38.266,59.047 38.304,59.525 36.888,59.637 37.012,61.247 	"/>
	<polygon clip-path="url(#SVGID_2_)" fill="none" stroke="#FFFFFF" stroke-width="0.085" stroke-miterlimit="10" points="
		38.166,61.158 38.202,61.631 37.049,61.721 37.178,63.399 38.596,63.289 38.633,63.769 36.69,63.919 36.324,59.197 38.266,59.047 
		38.304,59.525 36.888,59.637 37.012,61.247 	"/>
	<path clip-path="url(#SVGID_2_)" fill="#FFFFFF" d="M31.13,58.8c0.731,0.138,0.963,0.628,0.83,1.333l-0.104,0.559
		c-0.14,0.738-0.558,1.06-1.295,0.92l-0.459-0.086l-0.345,1.835l-0.518-0.098l0.874-4.654L31.13,58.8z M30.648,61.146
		c0.386,0.072,0.605-0.072,0.689-0.518l0.117-0.618c0.08-0.426-0.034-0.668-0.413-0.738l-0.498-0.094l-0.354,1.881L30.648,61.146z"
		/>
	<path clip-path="url(#SVGID_2_)" fill="none" stroke="#FFFFFF" stroke-width="0.085" stroke-miterlimit="10" d="M31.13,58.8
		c0.731,0.138,0.963,0.628,0.83,1.333l-0.104,0.559c-0.14,0.738-0.558,1.06-1.295,0.92l-0.459-0.086l-0.345,1.835l-0.518-0.098
		l0.874-4.654L31.13,58.8z M30.648,61.146c0.386,0.072,0.605-0.072,0.689-0.518l0.117-0.618c0.08-0.426-0.034-0.668-0.413-0.738
		l-0.498-0.094l-0.354,1.881L30.648,61.146z"/>
	<polygon clip-path="url(#SVGID_2_)" fill="#FFFFFF" points="22.893,60.985 24.759,57.16 23.975,56.777 24.185,56.346 
		26.228,57.343 26.018,57.774 25.232,57.392 23.367,61.217 	"/>
	<polygon clip-path="url(#SVGID_2_)" fill="none" stroke="#FFFFFF" stroke-width="0.085" stroke-miterlimit="10" points="
		22.893,60.985 24.759,57.16 23.975,56.777 24.185,56.346 26.228,57.343 26.018,57.774 25.232,57.392 23.367,61.217 	"/>
	<polygon clip-path="url(#SVGID_2_)" fill="#FFFFFF" points="16.344,56.463 15.99,56.149 19.125,52.601 19.627,53.044 
		18.181,56.335 20.448,53.77 20.799,54.079 17.662,57.627 17.252,57.264 18.88,53.594 	"/>
	<polygon clip-path="url(#SVGID_2_)" fill="none" stroke="#FFFFFF" stroke-width="0.085" stroke-miterlimit="10" points="
		16.344,56.463 15.99,56.149 19.125,52.601 19.627,53.044 18.181,56.335 20.448,53.77 20.799,54.079 17.662,57.627 17.252,57.264 
		18.88,53.594 	"/>
	<path clip-path="url(#SVGID_2_)" fill="#FFFFFF" d="M14.244,48.198c0.608-0.393,1.195-0.345,1.588,0.264
		c0.397,0.613,0.199,1.169-0.409,1.561l-2.058,1.33c-0.603,0.39-1.196,0.345-1.592-0.269c-0.393-0.609-0.19-1.166,0.413-1.557
		L14.244,48.198z M12.446,49.979c-0.364,0.235-0.475,0.524-0.27,0.843c0.209,0.324,0.516,0.337,0.879,0.102l2.104-1.358
		c0.358-0.231,0.478-0.519,0.269-0.843c-0.206-0.318-0.521-0.333-0.879-0.102L12.446,49.979z"/>
	<path clip-path="url(#SVGID_2_)" fill="none" stroke="#FFFFFF" stroke-width="0.085" stroke-miterlimit="10" d="M14.244,48.198
		c0.608-0.393,1.195-0.345,1.588,0.264c0.397,0.613,0.199,1.169-0.409,1.561l-2.058,1.33c-0.603,0.39-1.196,0.345-1.592-0.269
		c-0.393-0.609-0.19-1.166,0.413-1.557L14.244,48.198z M12.446,49.979c-0.364,0.235-0.475,0.524-0.27,0.843
		c0.209,0.324,0.516,0.337,0.879,0.102l2.104-1.358c0.358-0.231,0.478-0.519,0.269-0.843c-0.206-0.318-0.521-0.333-0.879-0.102
		L12.446,49.979z"/>
	<polygon clip-path="url(#SVGID_2_)" fill="#FFFFFF" points="8.517,43.902 8.375,43.415 11.775,41.612 8.15,42.664 8.021,42.222 
		12.571,40.904 12.775,41.612 9.359,43.411 13.201,43.08 13.407,43.789 8.857,45.106 8.719,44.625 12.376,43.565 	"/>
	<polygon clip-path="url(#SVGID_2_)" fill="none" stroke="#FFFFFF" stroke-width="0.085" stroke-miterlimit="10" points="
		8.517,43.902 8.375,43.415 11.775,41.612 8.15,42.664 8.021,42.222 12.571,40.904 12.775,41.612 9.359,43.411 13.201,43.08 
		13.407,43.789 8.857,45.106 8.719,44.625 12.376,43.565 	"/>
	<path clip-path="url(#SVGID_2_)" fill="#FFFFFF" d="M9.918,35.432c0,0.37-0.298,0.667-0.667,0.667
		c-0.367,0-0.665-0.297-0.665-0.667c0-0.367,0.298-0.666,0.665-0.666C9.621,34.766,9.918,35.065,9.918,35.432"/>
	<path clip-path="url(#SVGID_2_)" fill="#FFFFFF" d="M62.316,35.432c0,0.37-0.298,0.667-0.667,0.667
		c-0.368,0-0.666-0.297-0.666-0.667c0-0.367,0.298-0.666,0.666-0.666C62.018,34.766,62.316,35.065,62.316,35.432"/>
	<path clip-path="url(#SVGID_2_)" fill="#E7344C" d="M84.111,32.214c-3.955,0-5.087-2.623-5.087-6.547V14.22h2.544v11.447
		c0,2.355,0.188,4.451,2.543,4.451c2.354,0,2.543-2.096,2.543-4.451V14.22h2.544v11.447C89.198,29.591,88.066,32.214,84.111,32.214"
		/>
	<polygon clip-path="url(#SVGID_2_)" fill="#E7344C" points="94.798,20.182 94.798,32.026 92.255,32.026 92.255,14.221 
		94.162,14.221 98.613,25.229 98.613,14.221 101.157,14.221 101.157,32.026 99.349,32.026 	"/>
	<rect x="104.471" y="14.22" clip-path="url(#SVGID_2_)" fill="#E7344C" width="2.544" height="17.805"/>
	<polygon clip-path="url(#SVGID_2_)" fill="#E7344C" points="116.866,14.22 119.41,14.22 115.595,32.025 113.051,32.025 
		109.235,14.22 111.779,14.22 113.657,23.759 114.312,28.21 114.988,23.759 	"/>
	<polygon clip-path="url(#SVGID_2_)" fill="#E7344C" points="123.995,23.759 123.995,30.118 128.447,30.118 128.447,32.026 
		121.452,32.026 121.452,14.22 128.447,14.22 128.447,16.128 123.995,16.128 123.995,21.851 127.175,21.851 127.175,23.759 	"/>
	<path clip-path="url(#SVGID_2_)" fill="#E7344C" d="M137.335,23.123l2.861,8.902h-2.523l-2.563-8.266h-1.908v8.266h-2.544V14.22
		h3.18c3.627,0,5.724,1.232,5.724,4.769C139.561,21.086,138.814,22.586,137.335,23.123 M133.837,16.128h-0.636v5.723h0.636
		c2.058,0,3.18-0.785,3.18-2.862C137.017,16.913,135.895,16.128,133.837,16.128"/>
	<path clip-path="url(#SVGID_2_)" fill="#E7344C" d="M146.321,16.128c-1.231,0-1.907,0.726-1.907,1.937
		c0,1.104,0.577,1.958,1.271,2.514l3.18,2.544c1.302,1.053,2.544,2.643,2.544,4.918c0,2.643-1.778,4.163-4.451,4.163
		c-3.329,0-4.898-2.156-5.088-5.266l2.544-0.636c0.09,1.839,0.616,3.816,2.544,3.816c1.271,0,1.907-0.636,1.907-1.908
		c0-1.6-0.983-2.435-1.907-3.18l-3.18-2.543c-1.093-0.855-1.918-2.265-1.918-4.153c0-2.643,1.789-4.292,4.461-4.292
		c3.15,0,4.859,1.738,5.088,4.629l-2.544,0.637C148.756,17.618,148.12,16.128,146.321,16.128"/>
	<rect x="154.037" y="14.22" clip-path="url(#SVGID_2_)" fill="#E7344C" width="2.544" height="17.805"/>
	<polygon clip-path="url(#SVGID_2_)" fill="#E7344C" points="167.546,16.486 164.366,16.486 164.366,32.026 161.822,32.026 
		161.822,16.486 158.644,16.486 158.644,14.22 167.546,14.22 	"/>
	<path clip-path="url(#SVGID_2_)" fill="#E7344C" d="M171.972,23.759v6.359h4.451v1.908h-6.994V14.22h6.994v1.908h-4.451v5.723h3.18
		v1.908H171.972z M172.29,13.028l1.271-3.815h2.545l-2.545,3.815H172.29z"/>
	<path clip-path="url(#SVGID_2_)" fill="#E7344C" d="M184.758,32.026h-2.467V20.834h2.479c2.342,0,3.198,0.849,3.198,3.198v4.396
		C187.969,30.808,187.144,32.026,184.758,32.026 M184.739,22.033h-0.85v8.793h0.881c1.692,0,1.599-1.148,1.599-2.797v-3.598
		C186.369,22.901,186.325,22.033,184.739,22.033"/>
	<polygon clip-path="url(#SVGID_2_)" fill="#E7344C" points="191.375,26.829 191.375,30.826 194.173,30.826 194.173,32.025 
		189.776,32.025 189.776,20.833 194.173,20.833 194.173,22.033 191.375,22.033 191.375,25.63 193.374,25.63 193.374,26.829 	"/>
	<path clip-path="url(#SVGID_2_)" fill="#E7344C" d="M93.663,50.966v-6.609c0-3.564,1.219-5.674,4.757-5.674
		c3.518,0,4.737,2.109,4.737,5.674v6.609c0,3.544-1.22,5.761-4.737,5.761C94.861,56.727,93.663,54.531,93.663,50.966
		 M100.107,51.727v-8.109c0-1.478-0.224-2.586-1.688-2.586c-1.464,0-1.708,1.108-1.708,2.586v8.109c0,1.457,0.224,2.631,1.708,2.631
		C99.884,54.357,100.107,53.184,100.107,51.727"/>
	<polygon clip-path="url(#SVGID_2_)" fill="#E7344C" points="106.348,38.879 108.441,38.879 112.447,48.922 112.447,38.879 
		114.928,38.879 114.928,56.488 112.936,56.488 108.911,45.966 108.911,56.488 106.348,56.488 	"/>
	<polygon clip-path="url(#SVGID_2_)" fill="#E7344C" points="120.051,41.248 117.428,41.248 117.428,38.879 125.621,38.879 
		125.621,41.248 123.06,41.248 123.06,56.488 120.051,56.488 	"/>
	<path clip-path="url(#SVGID_2_)" fill="#E7344C" d="M128.101,38.88h4.839c2.948,0,4.209,1.824,4.209,5
		c0,3.456-1.749,4.781-4.412,4.781h-1.647v7.827h-2.988V38.88z M132.248,46.4c1.646,0,2.074-0.674,2.074-2.543
		c0-1.892-0.224-2.718-2.074-2.718h-1.159V46.4H132.248z"/>
	<polygon clip-path="url(#SVGID_2_)" fill="#E7344C" points="139.79,38.879 146.703,38.879 146.703,41.14 142.779,41.14 
		142.779,46.205 145.87,46.205 145.87,48.444 142.779,48.444 142.779,54.292 146.744,54.292 146.744,56.488 139.79,56.488 	"/>
	<polygon clip-path="url(#SVGID_2_)" fill="#E7344C" points="149.467,38.879 152.456,38.879 152.456,54.292 156.462,54.292 
		156.462,56.488 149.467,56.488 	"/>
	<polygon clip-path="url(#SVGID_2_)" fill="#E7344C" points="159.002,38.879 161.99,38.879 161.99,54.292 165.996,54.292 
		165.996,56.488 159.002,56.488 	"/>
	<rect x="168.618" y="38.879" clip-path="url(#SVGID_2_)" fill="#E7344C" width="2.969" height="17.609"/>
	<polygon clip-path="url(#SVGID_2_)" fill="#E7344C" points="175.103,38.879 182.016,38.879 182.016,41.14 178.093,41.14 
		178.093,46.205 181.183,46.205 181.183,48.444 178.093,48.444 178.093,54.292 182.057,54.292 182.057,56.488 175.103,56.488 	"/>
	<path clip-path="url(#SVGID_2_)" fill="#E7344C" d="M184.779,38.879h3.966c3.294,0,5.164,1.13,5.164,4.674
		c0,2.108-0.488,3.587-2.033,4.261l2.297,8.675h-3.009l-1.972-8.065h-1.424v8.065h-2.989V38.879z M188.725,46.422
		c1.729,0,2.358-0.804,2.358-2.695c0-1.782-0.468-2.652-2.196-2.652h-1.118v5.348H188.725z"/>
	<path clip-path="url(#SVGID_2_)" fill="#E7344C" d="M79.024,56.488V38.879h4.208l1.854,11.739l1.998-11.739h4.063v17.609h-2.587
		l-0.077-12.385c-0.569,3.805-1.458,8.579-2.027,12.385h-2.625l-2.134-12.464l-0.077,12.464H79.024z"/>
</g>
</svg>
