<?xml version="1.0" standalone="no"?>
<!DOCTYPE svg PUBLIC "-//W3C//DTD SVG 20010904//EN"
 "http://www.w3.org/TR/2001/REC-SVG-20010904/DTD/svg10.dtd">
<svg version="1.0" xmlns="http://www.w3.org/2000/svg"
 width="293.000000pt" height="295.000000pt" viewBox="0 0 293.000000 295.000000"
 preserveAspectRatio="xMidYMid meet">

<g transform="translate(0.000000,295.000000) scale(0.100000,-0.100000)"
fill="#E7314b" stroke="none">
<path d="M1419 2909 c-29 -21 -55 -39 -58 -39 -3 1 -31 14 -61 30 l-55 28 -47
-46 -48 -46 -47 13 c-89 25 -85 26 -126 -28 -40 -55 -51 -58 -133 -42 l-42 8
-27 -57 c-30 -62 -44 -70 -136 -70 -34 0 -36 -1 -55 -62 l-20 -63 -64 -10
c-70 -11 -67 -8 -84 -107 -6 -35 -10 -38 -71 -58 l-65 -22 0 -69 0 -69 -61
-30 c-38 -20 -59 -36 -56 -44 3 -7 8 -37 11 -67 l7 -54 -54 -38 -55 -39 21
-64 21 -64 -48 -49 -48 -49 32 -60 32 -60 -40 -54 -39 -53 39 -56 39 -57 -30
-58 -29 -59 46 -47 46 -48 -13 -47 c-25 -89 -26 -85 28 -126 54 -40 56 -45 42
-128 l-8 -47 58 -27 58 -28 6 -72 7 -72 62 -19 61 -19 10 -64 c11 -71 8 -68
107 -85 35 -6 38 -10 58 -71 l22 -65 67 0 68 0 33 -61 c19 -36 37 -58 44 -56
7 3 37 8 67 11 l54 7 38 -54 39 -55 64 21 64 21 49 -48 49 -48 60 32 59 33 54
-40 54 -40 56 39 57 39 59 -30 60 -30 48 49 47 48 56 -19 c30 -10 61 -19 67
-19 7 0 28 23 46 50 l34 50 72 -6 72 -6 26 53 c15 30 29 55 30 57 2 2 33 7 70
10 l68 7 21 60 21 60 65 10 64 10 9 45 c16 91 13 87 82 110 l65 22 0 69 0 69
59 29 58 30 -8 43 c-15 78 -12 95 24 117 74 48 72 42 52 116 l-18 66 45 46 46
46 -30 62 -31 63 31 43 c40 54 40 77 1 132 l-31 44 30 60 31 60 -49 48 -48 47
19 56 c10 30 19 61 19 67 0 7 -23 28 -50 46 l-51 34 6 72 7 72 -61 31 -61 30
0 68 0 67 -63 20 -62 20 -10 65 -10 65 -50 8 c-84 15 -90 19 -108 86 l-17 61
-70 0 -70 0 -30 61 c-20 38 -36 59 -44 56 -7 -3 -37 -8 -67 -12 l-54 -7 -38
55 -38 55 -65 -21 -64 -21 -49 48 -48 48 -62 -31 -61 -31 -54 39 -54 40 -53
-40z m275 -155 c529 -83 967 -519 1061 -1058 19 -114 19 -328 0 -442 -82 -469
-418 -858 -875 -1014 -248 -84 -569 -82 -826 5 -369 126 -681 438 -809 809
-89 262 -89 579 0 842 125 368 439 681 806 808 207 70 409 86 643 50z"/>
<path d="M1328 2739 c-227 -28 -453 -120 -634 -259 -133 -103 -283 -287 -362
-445 -146 -293 -168 -675 -56 -987 109 -301 349 -571 639 -716 284 -141 644
-167 951 -66 356 116 643 383 784 729 279 682 -82 1460 -784 1689 -160 53
-378 75 -538 55z m12 -89 c0 -15 -7 -20 -25 -20 -20 0 -25 -5 -25 -24 0 -19 6
-25 28 -28 33 -4 37 -32 5 -36 -24 -4 -27 -10 -17 -36 4 -10 18 -16 35 -16 35
0 40 -27 7 -34 -72 -16 -71 -17 -84 60 -23 135 -23 138 11 145 54 12 65 10 65
-11z m328 4 c24 -16 31 -77 11 -89 -6 -4 -8 -14 -4 -23 3 -8 3 -34 -1 -58 -5
-35 -9 -41 -25 -37 -15 4 -19 13 -17 44 3 38 -14 57 -20 22 -9 -54 -12 -61
-30 -56 -17 4 -17 10 -3 109 14 102 15 104 40 104 15 0 37 -7 49 -16z m-634
-179 c31 -107 31 -102 6 -115 -17 -9 -27 0 -85 77 -48 63 -62 89 -53 95 21 13
25 10 59 -37 18 -25 34 -43 36 -42 1 2 -4 27 -13 57 -13 43 -13 54 -2 61 19
12 24 3 52 -96z m964 79 c22 -15 27 -38 16 -68 -8 -22 -34 -8 -34 20 0 13 -4
24 -9 24 -18 0 -20 -32 -5 -70 20 -51 4 -93 -39 -98 -47 -6 -70 32 -51 82 8
22 34 8 34 -20 0 -13 4 -24 9 -24 17 0 19 24 5 59 -18 44 -18 54 7 85 24 30
36 32 67 10z m252 -213 c-11 -14 -42 -51 -70 -81 -44 -49 -51 -53 -64 -40 -13
13 -7 24 56 93 56 62 73 75 84 66 12 -9 11 -16 -6 -38z m-559 15 c174 -44 305
-119 429 -245 172 -173 260 -390 260 -636 0 -246 -88 -463 -260 -636 -176
-179 -391 -269 -641 -269 -196 0 -346 44 -505 149 -199 131 -340 339 -389 572
-19 90 -19 278 0 368 73 348 352 629 698 705 34 8 119 14 188 15 103 1 144 -3
220 -23z m-950 -33 c89 -95 94 -102 80 -116 -10 -10 -28 4 -88 67 -55 58 -71
81 -61 87 20 13 20 13 69 -38z m1723 -183 c14 -22 26 -44 26 -49 0 -16 -29
-21 -37 -6 -7 11 -23 4 -78 -31 -38 -24 -73 -43 -79 -41 -27 9 -11 31 54 73
50 32 70 50 66 61 -7 16 0 33 13 33 5 0 20 -18 35 -40z m-1872 -40 c62 -37 85
-56 81 -67 -5 -12 -16 -14 -52 -9 l-46 6 25 -20 c14 -11 28 -20 33 -20 13 0 7
-20 -7 -26 -15 -6 -186 93 -186 106 0 16 30 31 50 26 60 -17 64 -17 30 4 -19
12 -36 23 -38 25 -5 5 10 35 17 31 3 -2 45 -27 93 -56z m2012 -255 c3 -8 12
-15 20 -15 9 0 20 -9 26 -19 15 -28 13 -33 -10 -21 -17 9 -20 8 -20 -10 0 -13
-7 -20 -20 -20 -13 0 -20 7 -20 19 0 11 -4 22 -9 25 -17 11 -41 -6 -41 -29 0
-33 -28 -40 -36 -9 -4 17 -11 23 -21 20 -8 -3 -19 -6 -24 -6 -5 0 -8 -14 -7
-32 2 -23 -2 -33 -14 -36 -12 -2 -18 7 -23 37 -4 23 -7 44 -7 48 0 7 160 59
188 62 7 1 14 -6 18 -14z m-2166 -41 c37 -9 75 -24 85 -32 24 -22 21 -59 -7
-77 -22 -14 -31 -14 -110 6 -70 17 -86 25 -86 40 0 11 3 19 8 19 8 0 130 -28
155 -36 11 -3 17 0 17 9 0 9 -18 19 -47 26 -116 29 -122 31 -117 46 8 19 20
19 102 -1z m-24 -319 c7 -19 -20 -46 -39 -39 -21 8 -26 32 -9 48 16 17 40 12
48 -9z m2180 0 c7 -19 -20 -46 -39 -39 -21 8 -26 32 -9 48 16 17 40 12 48 -9z
m-26 -236 c51 -10 62 -15 62 -32 0 -18 -5 -19 -46 -13 -54 7 -58 -13 -6 -26
22 -6 32 -15 32 -28 0 -24 3 -24 -74 -4 -156 39 -146 31 -121 90 17 40 13 40
153 13z m-2028 -26 c0 -7 -21 -24 -47 -38 l-48 -25 54 2 c42 2 55 -2 63 -16 5
-10 8 -19 6 -22 -3 -2 -43 -15 -89 -29 -46 -14 -91 -28 -100 -30 -11 -4 -18 2
-22 15 -3 11 0 20 6 20 7 0 4 5 -5 11 -10 5 -18 16 -18 24 0 8 8 19 18 24 15
9 15 10 -4 11 -12 0 -24 6 -27 14 -4 11 9 19 51 31 31 9 77 22 102 29 46 13
59 8 60 -21z m1825 -203 c3 -5 1 -19 -6 -32 -10 -18 -8 -24 7 -35 16 -12 21
-11 36 9 21 29 46 12 30 -19 -9 -15 -6 -22 10 -32 19 -12 23 -11 35 5 7 10 13
22 13 26 0 5 9 4 20 -2 20 -11 20 -11 -2 -50 -13 -22 -26 -40 -30 -40 -16 0
-178 96 -178 105 0 16 39 75 49 75 6 0 13 -4 16 -10z m-1699 -86 c16 -24 16
-27 -2 -50 -30 -40 -128 -97 -153 -89 -27 8 -44 40 -36 65 9 28 114 99 147 99
19 1 33 -7 44 -25z m1613 -185 c39 -37 71 -71 71 -77 0 -30 -28 -17 -101 48
-64 59 -77 75 -68 87 16 18 15 19 98 -58z m-1470 -47 l-19 -47 28 34 c27 31
52 36 52 10 0 -6 -30 -44 -67 -85 -56 -63 -69 -72 -80 -61 -12 11 -11 21 7 63
l20 49 -34 -39 c-30 -35 -56 -42 -56 -14 0 5 30 43 66 84 56 62 69 72 85 64
18 -10 18 -12 -2 -58z m1255 -122 c45 -69 47 -70 70 -55 20 13 25 13 35 2 9
-11 3 -20 -30 -41 -22 -15 -42 -26 -43 -24 -29 35 -114 174 -110 180 13 20 34
3 78 -62z m-1003 9 c41 -21 48 -45 12 -43 -16 0 -29 -17 -59 -77 -33 -68 -40
-77 -56 -68 -17 9 -15 15 21 87 35 69 37 79 23 88 -16 10 -10 34 9 34 5 0 28
-9 50 -21z m760 -126 c15 -43 31 -77 36 -76 41 7 48 6 51 -8 2 -12 -10 -21
-41 -32 l-45 -15 -33 99 c-29 85 -32 101 -19 109 19 12 18 13 51 -77z m-493
35 c6 -6 12 -26 12 -45 0 -39 -39 -86 -64 -77 -11 4 -17 -4 -22 -30 -7 -41
-14 -48 -33 -37 -11 7 -10 27 5 110 l19 102 35 -6 c19 -4 41 -11 48 -17z m272
-18 c0 -15 -7 -20 -25 -20 -20 0 -25 -5 -25 -25 0 -20 5 -25 26 -25 33 0 29
-33 -4 -38 -17 -3 -22 -9 -20 -25 2 -17 11 -23 36 -25 63 -6 29 -42 -40 -42
-24 0 -27 4 -32 43 -11 93 -15 165 -9 171 3 3 26 6 50 6 36 0 43 -3 43 -20z"/>
<path d="M1626 2604 c-8 -29 -3 -39 13 -29 13 8 15 55 2 55 -5 0 -12 -12 -15
-26z"/>
<path d="M1356 2349 c-186 -25 -361 -114 -501 -254 -148 -148 -230 -317 -255
-524 -22 -179 22 -383 118 -546 63 -107 200 -244 307 -307 554 -326 1254 26
1325 667 41 377 -179 753 -529 900 -142 59 -321 84 -465 64z m132 -381 c-3
-166 -8 -202 -25 -184 -9 9 -4 527 6 541 11 18 21 -176 19 -357z m-124 204
c29 -156 29 -152 18 -152 -13 0 -29 61 -47 171 -18 112 -18 119 -6 119 5 0 21
-62 35 -138z m266 133 c0 -19 -32 -208 -41 -242 -11 -40 -29 -59 -29 -30 0 33
54 277 61 277 5 0 9 -2 9 -5z m-411 -99 c20 -55 21 -81 2 -60 -11 11 -41 102
-41 123 0 26 16 0 39 -63z m531 -9 c-12 -32 -26 -57 -31 -57 -13 0 -12 8 12
70 26 68 33 79 37 59 1 -9 -7 -41 -18 -72z m-657 -44 c20 -32 33 -61 30 -66
-7 -12 -15 -2 -53 66 -41 74 -22 74 23 0z m781 -10 c-45 -81 -42 -78 -51 -70
-7 8 7 41 42 96 42 67 49 46 9 -26z m-869 -93 c58 -67 81 -108 56 -98 -11 4
-141 164 -141 173 0 16 25 -6 85 -75z m1025 75 c0 -8 -142 -180 -151 -183 -26
-10 -1 32 62 106 63 72 89 95 89 77z m-734 -40 c20 -13 68 -124 127 -291 l21
-61 -49 -129 c-26 -71 -51 -133 -55 -137 -4 -5 -19 22 -33 60 -60 162 -69 184
-73 180 -8 -8 -214 -558 -214 -571 0 -23 48 -58 88 -63 54 -7 122 25 154 75
14 20 93 219 177 442 194 515 182 487 226 506 44 18 98 5 120 -29 29 -46 385
-1010 385 -1044 0 -73 -80 -114 -150 -78 -31 16 -22 -6 -210 493 -62 163 -106
268 -111 260 -4 -7 -57 -146 -119 -308 -61 -162 -125 -316 -141 -342 -120
-187 -371 -236 -528 -102 -63 55 -85 104 -86 194 0 73 5 87 158 490 87 228
163 423 169 433 23 43 95 54 144 22z m-361 -145 c50 -40 92 -79 93 -87 2 -9
-1 -14 -7 -12 -19 7 -201 170 -201 181 0 12 -4 15 115 -82z m1191 71 c-9 -13
-203 -181 -210 -181 -3 0 -6 6 -6 14 0 8 46 51 101 95 91 73 130 97 115 72z
m-1127 -248 c3 -2 0 -8 -5 -13 -12 -12 -267 137 -259 151 4 6 241 -118 264
-138z m1215 138 c9 -14 -253 -166 -266 -153 -7 7 11 21 59 48 37 21 97 54 133
75 36 20 66 38 67 38 1 1 4 -3 7 -8z m-1391 -177 c86 -30 137 -52 137 -60 0
-8 -3 -14 -7 -14 -17 0 -283 106 -283 113 0 12 8 9 153 -39z m1452 37 c-12
-12 -265 -111 -283 -111 -8 0 -12 6 -10 13 2 6 65 33 139 59 135 47 171 56
154 39z m-1475 -156 c128 -20 137 -22 122 -37 -13 -13 -295 39 -286 54 3 5 18
7 32 4 15 -3 74 -13 132 -21z m1510 16 c0 -9 -22 -15 -182 -46 -80 -16 -131
-15 -114 3 4 4 67 17 139 28 163 26 157 26 157 15z m-1420 -146 c0 -13 -22
-15 -135 -15 -143 0 -189 17 -62 23 182 8 197 8 197 -8z m1407 5 c20 0 32 -4
28 -10 -4 -6 -62 -10 -141 -10 -118 0 -134 2 -134 17 0 14 12 15 107 10 58 -4
121 -7 140 -7z m-82 -126 c85 -16 133 -34 90 -34 -31 0 -193 28 -205 35 -17
10 -11 27 8 21 9 -3 58 -12 107 -22z m-1373 4 c-11 -11 -140 -36 -191 -37 -44
-1 -11 14 67 30 97 21 141 24 124 7z m-46 -136 c-7 -11 -91 -42 -114 -42 -25
0 -4 13 56 36 58 22 69 23 58 6z m1411 -4 c65 -24 87 -38 58 -37 -32 1 -118
34 -123 47 -5 16 -3 16 65 -10z"/>
<path d="M2452 1218 c3 -7 15 -15 27 -16 16 -3 22 1 19 10 -3 7 -15 15 -27 16
-16 3 -22 -1 -19 -10z"/>
<path d="M388 1113 c7 -3 16 -2 19 1 4 3 -2 6 -13 5 -11 0 -14 -3 -6 -6z"/>
<path d="M568 891 c-49 -31 -63 -47 -50 -55 11 -6 122 62 122 75 0 16 -25 9
-72 -20z"/>
<path d="M1277 463 c-10 -10 -8 -53 2 -53 10 0 21 24 21 46 0 15 -12 19 -23 7z"/>
</g>
</svg>
